<svg xmlns="http://www.w3.org/2000/svg" viewBox="0 0 1024 1024" role="img" aria-label="Atelier tray icon for dark UI">
  <!--
Atelier icon asset
Pure SVG vector: no embedded raster images, no external fonts, no scripts.
Brand concept: A + Flow + Scheduling.
-->
  <defs>
    <mask id="aCut">
      <rect width="1024" height="1024" fill="#FFFFFF"/>
      <path d="M306 622 H421 C498 622 516 576 590 548 C622 536 660 536 720 542"
            fill="none" stroke="#000000" stroke-width="84" stroke-linecap="round" stroke-linejoin="round"/>
      <path d="M275 724 H432 C512 724 530 666 594 646 C626 636 660 636 700 638 C748 640 768 672 792 718 L842 812"
            fill="none" stroke="#000000" stroke-width="98" stroke-linecap="round" stroke-linejoin="round"/>
      <path d="M240 822 H388 C472 822 500 774 536 708 L578 636"
            fill="none" stroke="#000000" stroke-width="82" stroke-linecap="round" stroke-linejoin="round"/>
    </mask>
  </defs>
  <g fill="none" stroke="#FFFFFF" stroke-linecap="round" stroke-linejoin="round">
    <path d="M302 550 L462 257 C486 212 538 212 562 257 L854 802"
          stroke-width="156" mask="url(#aCut)"/>
    <path d="M306 622 H421 C498 622 516 576 590 548 C622 536 660 536 720 542"
          stroke-width="48"/>
    <path d="M275 724 H432 C512 724 530 666 594 646 C626 636 660 636 700 638 C748 640 768 672 792 718 L842 812"
          stroke-width="60"/>
    <path d="M240 822 H388 C472 822 500 774 536 708 L578 636"
          stroke-width="48"/>
  </g>
  <g fill="#FFFFFF">
    <rect x="234" y="594" width="74" height="52" rx="13"/>
    <rect x="180" y="688" width="118" height="58" rx="15"/>
    <rect x="156" y="796" width="118" height="58" rx="15"/>
  </g>
</svg>
