<svg xmlns="http://www.w3.org/2000/svg" viewBox="0 0 24 24" width="24" height="24" fill="none" stroke="currentColor" stroke-width="1.8" stroke-linecap="round" stroke-linejoin="round" >
  <title>Settings</title>
  <path d="M12 8.5a3.5 3.5 0 1 0 0 7 3.5 3.5 0 0 0 0-7z"/><path d="M19.4 15a1.8 1.8 0 0 0 .36 2l.04.04a2.1 2.1 0 0 1-3 3l-.04-.04a1.8 1.8 0 0 0-2-.36 1.8 1.8 0 0 0-1.1 1.66V21a2.1 2.1 0 0 1-4.2 0v-.06A1.8 1.8 0 0 0 8.4 19.3a1.8 1.8 0 0 0-2 .36l-.04.04a2.1 2.1 0 0 1-3-3l.04-.04a1.8 1.8 0 0 0 .36-2 1.8 1.8 0 0 0-1.66-1.1H2a2.1 2.1 0 0 1 0-4.2h.06A1.8 1.8 0 0 0 3.7 8.3a1.8 1.8 0 0 0-.36-2l-.04-.04a2.1 2.1 0 0 1 3-3l.04.04a1.8 1.8 0 0 0 2 .36A1.8 1.8 0 0 0 9.4 2.06V2a2.1 2.1 0 0 1 4.2 0v.06a1.8 1.8 0 0 0 1.1 1.66 1.8 1.8 0 0 0 2-.36l.04-.04a2.1 2.1 0 0 1 3 3l-.04.04a1.8 1.8 0 0 0-.36 2 1.8 1.8 0 0 0 1.66 1.1H22a2.1 2.1 0 0 1 0 4.2h-.06A1.8 1.8 0 0 0 19.4 15z"/>
</svg>
